<?xml version="1.0" encoding="UTF-8" standalone="no"?>
<svg width="28px" height="18px" viewBox="0 0 28 18" version="1.1" xmlns="http://www.w3.org/2000/svg" xmlns:xlink="http://www.w3.org/1999/xlink" xmlns:sketch="http://www.bohemiancoding.com/sketch/ns">
    <!-- Generator: Sketch 3.3.3 (12072) - http://www.bohemiancoding.com/sketch -->
    <title>Aa</title>
    <desc>Created with Sketch.</desc>
    <defs></defs>
    <g id="Page-1" stroke="none" stroke-width="1" fill="none" fill-rule="evenodd" sketch:type="MSPage">
        <g id="User-settings" sketch:type="MSArtboardGroup" transform="translate(-475.000000, -321.000000)" fill="#6F6F6F">
            <g id="screen" sketch:type="MSLayerGroup" transform="translate(0.000000, -24.000000)">
                <g id="Light-settings" transform="translate(476.000000, 330.000000)" sketch:type="MSShapeGroup">
                    <g id="app-bar" transform="translate(0.000000, 10.000000)">
                        <g id="Aa" transform="translate(0.000000, 1.000000)">
                            <path d="M15.9584961,21 L9.32128906,21 L9.32128906,20.2026367 C9.90527636,20.1652016 10.3900534,20.0903326 10.7756348,19.9780273 C11.1612161,19.8657221 11.3540039,19.7272144 11.3540039,19.5625 C11.3540039,19.4951169 11.346517,19.4127609 11.331543,19.3154297 C11.3165689,19.2180985 11.2941082,19.1319991 11.2641602,19.0571289 L9.93896484,15.4858398 L4.35742188,15.4858398 C4.14778541,16.009931 3.97745834,16.4666322 3.84643555,16.855957 C3.71541276,17.2452819 3.59749401,17.6046533 3.49267578,17.934082 C3.39534457,18.2560237 3.32796243,18.5180654 3.29052734,18.7202148 C3.25309226,18.9223643 3.234375,19.0870762 3.234375,19.2143555 C3.234375,19.5138361 3.47021249,19.7459302 3.94189453,19.9106445 C4.41357658,20.0753589 4.94514678,20.1726887 5.53662109,20.2026367 L5.53662109,21 L-0.460449219,21 L-0.460449219,20.2026367 C-0.265786787,20.1876627 -0.0224623975,20.144613 0.26953125,20.0734863 C0.561524897,20.0023597 0.801105835,19.9069016 0.98828125,19.7871094 C1.28776191,19.5849599 1.51985595,19.3734549 1.68457031,19.1525879 C1.84928468,18.9317209 2.01025312,18.6266296 2.16748047,18.2373047 C2.96859125,16.2382713 3.85204595,13.9922 4.81787109,11.4990234 C5.78369624,9.00584691 6.64469023,6.78597979 7.40087891,4.83935547 L8.29931641,4.83935547 L13.6113281,18.5854492 C13.7236334,18.8774429 13.8509107,19.1132804 13.9931641,19.2929688 C14.1354174,19.4726571 14.3338203,19.6485994 14.5883789,19.8208008 C14.7605803,19.925619 14.9851874,20.0135901 15.262207,20.0847168 C15.5392266,20.1558435 15.7713207,20.1951497 15.9584961,20.2026367 L15.9584961,21 Z M9.53466797,14.4863281 L7.12011719,8.30957031 L4.75048828,14.4863281 L9.53466797,14.4863281 Z M26.7285156,20.7978516 C26.3766258,20.9251308 26.067791,21.0280758 25.802002,21.1066895 C25.5362129,21.1853031 25.234865,21.2246094 24.8979492,21.2246094 C24.3139619,21.2246094 23.8479021,21.0879734 23.4997559,20.8146973 C23.1516096,20.5414212 22.9288742,20.1427435 22.831543,19.6186523 L22.7641602,19.6186523 C22.2775041,20.1577175 21.7552925,20.5694973 21.1975098,20.8540039 C20.639727,21.1385105 19.9677774,21.2807617 19.1816406,21.2807617 C18.3505818,21.2807617 17.6674018,21.026207 17.1320801,20.5170898 C16.5967584,20.0079727 16.3291016,19.3416382 16.3291016,18.5180664 C16.3291016,18.0913065 16.3889968,17.7094743 16.5087891,17.3725586 C16.6285813,17.0356428 16.808267,16.7324232 17.0478516,16.4628906 C17.235027,16.2382801 17.4820948,16.0380054 17.7890625,15.8620605 C18.0960302,15.6861157 18.384276,15.5457362 18.6538086,15.440918 C18.9907243,15.3136387 19.6739044,15.0778012 20.7033691,14.7333984 C21.7328339,14.3889957 22.4272443,14.1194671 22.7866211,13.9248047 L22.7866211,12.8129883 C22.7866211,12.7156571 22.7660321,12.5284845 22.7248535,12.2514648 C22.6836749,11.9744452 22.5957038,11.7124036 22.4609375,11.465332 C22.3111972,11.1883124 22.0996921,10.9468598 21.826416,10.7409668 C21.5531399,10.5350738 21.1656926,10.4321289 20.6640625,10.4321289 C20.3196597,10.4321289 19.9995946,10.4901524 19.7038574,10.6062012 C19.4081203,10.7222499 19.2003587,10.8439121 19.0805664,10.9711914 C19.0805664,11.1209317 19.1161292,11.3417954 19.1872559,11.6337891 C19.2583825,11.9257827 19.2939453,12.1953113 19.2939453,12.4423828 C19.2939453,12.7044284 19.1760266,12.9440093 18.9401855,13.1611328 C18.7043445,13.3782563 18.3767925,13.4868164 17.9575195,13.4868164 C17.5831687,13.4868164 17.308025,13.3539239 17.1320801,13.0881348 C16.9561352,12.8223457 16.8681641,12.5247412 16.8681641,12.1953125 C16.8681641,11.8509097 16.9898263,11.5214859 17.2331543,11.2070312 C17.4764823,10.8925766 17.792804,10.6118176 18.1821289,10.3647461 C18.5190447,10.1551096 18.9270809,9.97729565 19.40625,9.83129883 C19.8854191,9.685302 20.3533506,9.61230469 20.8100586,9.61230469 C21.438968,9.61230469 21.9873837,9.65535439 22.4553223,9.74145508 C22.9232608,9.82755577 23.3481426,10.0128567 23.7299805,10.2973633 C24.1118183,10.5743829 24.4019359,10.9505998 24.6003418,11.4260254 C24.7987477,11.9014509 24.8979492,12.5135054 24.8979492,13.262207 C24.8979492,14.3328504 24.8867189,15.2818155 24.8642578,16.1091309 C24.8417968,16.9364462 24.8305664,17.8404899 24.8305664,18.8212891 C24.8305664,19.1132827 24.881103,19.3453767 24.9821777,19.5175781 C25.0832525,19.6897795 25.2386057,19.8357741 25.4482422,19.9555664 C25.5605474,20.0229496 25.7383614,20.0603841 25.9816895,20.0678711 C26.2250175,20.0753581 26.4739571,20.0791016 26.7285156,20.0791016 L26.7285156,20.7978516 Z M22.809082,14.8681641 C22.1726856,15.0553395 21.6149112,15.2387686 21.1357422,15.418457 C20.6565731,15.5981454 20.2111023,15.8227526 19.7993164,16.0922852 C19.4249656,16.3468437 19.1292329,16.6481916 18.9121094,16.9963379 C18.6949859,17.3444842 18.5864258,17.7581356 18.5864258,18.2373047 C18.5864258,18.8587271 18.7492659,19.3154282 19.0749512,19.6074219 C19.4006364,19.8994155 19.8142879,20.0454102 20.315918,20.0454102 C20.8474961,20.0454102 21.3154277,19.9162611 21.7197266,19.657959 C22.1240255,19.3996569 22.4646796,19.0945656 22.7416992,18.7426758 L22.809082,14.8681641 Z"></path>
                        </g>
                    </g>
                </g>
            </g>
        </g>
    </g>
</svg>