<?xml version="1.0" encoding="UTF-8" standalone="no"?>
<svg width="19px" height="17px" viewBox="0 0 19 17" version="1.1" xmlns="http://www.w3.org/2000/svg" xmlns:xlink="http://www.w3.org/1999/xlink" xmlns:sketch="http://www.bohemiancoding.com/sketch/ns">
    <!-- Generator: Sketch 3.3.3 (12072) - http://www.bohemiancoding.com/sketch -->
    <title>Shape</title>
    <desc>Created with Sketch.</desc>
    <defs></defs>
    <g id="Page-1" stroke="none" stroke-width="1" fill="none" fill-rule="evenodd" sketch:type="MSPage">
        <g id="User-settings" sketch:type="MSArtboardGroup" transform="translate(-294.000000, -320.000000)" fill="#757575">
            <g id="screen" sketch:type="MSLayerGroup" transform="translate(0.000000, -24.000000)">
                <g id="Font-settings-dropdown" transform="translate(102.000000, 330.000000)" sketch:type="MSShapeGroup">
                    <g id="app-bar" transform="translate(136.000000, 10.000000)">
                        <g id="brightness" transform="translate(56.500000, 4.000000)">
                            <path d="M11,7.58823529 C11,4.50623779 8.54195909,2 5.5,2 C2.45804091,2 0,4.50623779 0,7.58823529 C0,9.17842419 0.658627891,10.6645014 1.7930371,11.71657 L1.71093429,11.630815 C2.19344249,12.1987548 2.28806259,12.494251 2.27206419,13.0427801 C2.27038475,13.1003625 2.26844243,13.1464106 2.26306707,13.2625873 C2.25348424,13.4697628 2.25,13.5720752 2.25,13.7058824 C2.25,15.5208737 3.7006816,17 5.5,17 C7.2993184,17 8.75,15.5208737 8.75,13.7058824 L8.75,13.7058824 C8.75,13.1999718 8.75841003,12.9558464 8.7953187,12.6773964 C8.85235505,12.2470972 8.96807928,11.9511793 9.14131841,11.7726765 C10.2905812,10.7748217 11,9.23832849 11,7.58823529 L11,7.58823529 Z M9,7.58823529 C9,8.65623806 8.54362087,9.64468581 7.76638451,10.3226228 C7.18811185,10.913511 6.92114126,11.5961803 6.81266014,12.4145941 C6.76054919,12.8077346 6.75,13.1139554 6.75,13.7058824 L6.75,13.7058824 C6.75,14.4249034 6.18596297,15 5.5,15 C4.81403703,15 4.25,14.4249034 4.25,13.7058824 C4.25,13.6125208 4.25273738,13.5321393 4.260931,13.3549978 C4.26657108,13.2336713 4.26908637,13.174039 4.27121408,13.1010872 C4.30109886,12.0764427 4.05142491,11.2967171 3.23513154,10.3358931 L3.15302873,10.2501381 C2.42373528,9.57378005 2,8.61769641 2,7.58823529 C2,5.60220804 3.57139634,4 5.5,4 C7.42860366,4 9,5.60220804 9,7.58823529 Z M13.0144958,4.35749293 L15.5144958,2.85749293 L16.3719887,2.34299717 L15.3429972,0.628011319 L14.4855042,1.14250707 L11.9855042,2.64250707 L11.1280113,3.15700283 L12.1570028,4.87198868 L13.0144958,4.35749293 Z M13.9993853,8.99999981 L16.9993853,9.00184405 L17.9993851,9.00245879 L18.0006146,7.00245917 L17.0006147,7.00184443 L14.0006147,7.00000019 L13.0006149,6.99938544 L12.9993854,8.99938507 L13.9993853,8.99999981 Z" id="Shape"></path>
                        </g>
                    </g>
                </g>
            </g>
        </g>
    </g>
</svg>