<?xml version="1.0" encoding="UTF-8" standalone="no"?>
<svg width="20px" height="19px" viewBox="0 0 20 19" version="1.1" xmlns="http://www.w3.org/2000/svg" xmlns:xlink="http://www.w3.org/1999/xlink" xmlns:sketch="http://www.bohemiancoding.com/sketch/ns">
    <!-- Generator: Sketch 3.3.3 (12072) - http://www.bohemiancoding.com/sketch -->
    <title>A</title>
    <desc>Created with Sketch.</desc>
    <defs></defs>
    <g id="Page-1" stroke="none" stroke-width="1" fill="none" fill-rule="evenodd" sketch:type="MSPage">
        <g id="User-settings" sketch:type="MSArtboardGroup" transform="translate(-173.000000, -374.000000)" fill="#4A4A4A">
            <g id="screen" sketch:type="MSLayerGroup" transform="translate(0.000000, -24.000000)">
                <g id="Font-settings-dropdown" transform="translate(102.000000, 330.000000)" sketch:type="MSShapeGroup">
                    <g id="font-size-menu">
                        <path d="M90.7338867,87 L82.9423828,87 L82.9423828,86.0639648 C83.6279331,86.0200193 84.1970192,85.9321296 84.6496582,85.800293 C85.1022972,85.6684564 85.3286133,85.5058603 85.3286133,85.3125 C85.3286133,85.233398 85.3198243,85.1367193 85.3022461,85.0224609 C85.2846679,84.9082026 85.258301,84.8071293 85.2231445,84.7192383 L83.6674805,80.5268555 L77.1152344,80.5268555 C76.8691394,81.1420929 76.6691902,81.6782204 76.5153809,82.1352539 C76.3615715,82.5922874 76.2231451,83.0141582 76.1000977,83.4008789 C75.9858393,83.7788105 75.9067385,84.0864246 75.862793,84.3237305 C75.8188474,84.5610363 75.796875,84.7543938 75.796875,84.9038086 C75.796875,85.2553729 76.0737277,85.5278311 76.6274414,85.7211914 C77.1811551,85.9145517 77.8051723,86.0288084 78.4995117,86.0639648 L78.4995117,87 L71.4594727,87 L71.4594727,86.0639648 C71.6879894,86.0463866 71.9736311,85.99585 72.3164062,85.9123535 C72.6591814,85.828857 72.9404286,85.7167976 73.1601562,85.5761719 C73.5117205,85.338866 73.7841787,85.0905775 73.9775391,84.8312988 C74.1708994,84.5720202 74.3598624,84.2138695 74.5444336,83.7568359 C75.484868,81.4101445 76.521967,78.7734521 77.6557617,75.8466797 C78.7895565,72.9199072 79.8002885,70.3139763 80.6879883,68.0288086 L81.7426758,68.0288086 L87.9785156,84.1655273 C88.1103522,84.5083025 88.2597648,84.7851552 88.4267578,84.9960938 C88.5937508,85.2070323 88.8266587,85.4135732 89.1254883,85.6157227 C89.3276377,85.7387701 89.591307,85.8420406 89.9165039,85.9255371 C90.2417008,86.0090336 90.5141591,86.0551757 90.7338867,86.0639648 L90.7338867,87 Z M83.1928711,79.3535156 L80.3583984,72.1025391 L77.5766602,79.3535156 L83.1928711,79.3535156 Z" id="A"></path>
                    </g>
                </g>
            </g>
        </g>
    </g>
</svg>