<?xml version="1.0" encoding="UTF-8" standalone="no"?>
<svg width="4px" height="16px" viewBox="0 0 4 16" version="1.1" xmlns="http://www.w3.org/2000/svg" xmlns:xlink="http://www.w3.org/1999/xlink" xmlns:sketch="http://www.bohemiancoding.com/sketch/ns">
    <!-- Generator: Sketch 3.3.2 (12043) - http://www.bohemiancoding.com/sketch -->
    <title>Shape</title>
    <desc>Created with Sketch.</desc>
    <defs></defs>
    <g id="Page-1" stroke="none" stroke-width="1" fill="none" fill-rule="evenodd" sketch:type="MSPage">
        <path d="M2,12 C3.1,12 4,12.9 4,14 C4,15.1 3.1,16 2,16 C0.9,16 0,15.1 0,14 C0,12.9 0.9,12 2,12 L2,12 Z M2,10 C0.9,10 0,9.1 0,8 C0,6.9 0.9,6 2,6 C3.1,6 4,6.9 4,8 C4,9.1 3.1,10 2,10 L2,10 Z M2,4 C0.9,4 0,3.1 0,2 C0,0.9 0.9,0 2,0 C3.1,0 4,0.9 4,2 C4,3.1 3.1,4 2,4 L2,4 Z" id="Shape" fill="#757575" sketch:type="MSShapeGroup"></path>
    </g>
</svg>
